<svg xmlns:xlink="http://www.w3.org/1999/xlink"
    xmlns="http://www.w3.org/2000/svg" version="1.1" viewBox="0 0 730 187" alt="BSK" class="bsk-teen-logo__icon svg-icon svg-fill" width="730" height="187">
    <defs>
        <path pid="0" id="SVGID_1_" d="M0 .7h729.6v185.9H0z"></path>
        <path pid="0" id="SVGID_1_" d="M0 .7h729.6v185.9H0z"></path>
    </defs>
    <clipPath id="SVGID_00000152951467635895540240000014114376105898778759_">
        <g></g>
    </clipPath>
    <g clip-path="url(#SVGID_00000152951467635895540240000014114376105898778759_)" _fill="none">
        <path pid="1" d="M449.9 149.2l11.8-54.9h-21.9l3.5-16.4h66.9l-3.5 16.4h-22l-11.8 54.9h-23zM503.5 149.2l15.3-71.3h56.7L571.8 95h-34.7l-2.2 10.1h27.5l-3.4 15.7h-27.5l-2.4 11h34.8l-3.7 17.3-56.7.1zM571.8 149.2l15.3-71.3h56.7L640.1 95h-34.7l-2.2 10.1h27.5l-3.4 15.7h-27.5l-2.4 11h34.8l-3.7 17.3-56.7.1zM640.2 149.2l15.3-71.3h28.6l15.4 39.8c1.1-5.4 2.2-10.4 3.9-18.3l4.5-21.5h21.7l-15.3 71.3h-23.2l-18.8-48.7-4.4 20.5-6 28.2h-21.7z"></path>
        <path pid="2" d="M252.4 156.1h36.4l4.9-22.8 15.6-12.1 18.8 34.9h42.3L338 101.4 384.6 64h-46.8l-35.9 30.9L316 27.8h-36.4l-27.2 128.3zm-48.5 3.2c26.5 0 48.8-10.4 48.8-32.9 0-13.6-9.4-24.2-31.9-28.7l-10.1-2c-7.9-1.5-10.9-3.5-10.9-6.9 0-3.7 3.2-6.7 9.6-6.7 7.7 0 11.6 4.5 12.6 9.9l35.1-5.9c-2.2-12.6-15.3-25.2-45.3-25.2-27.7 0-45.5 12.6-45.5 32.4 0 14.3 9.9 21.8 29.9 26.5l11.7 2.7c5.7 1.2 8.4 3.7 8.4 7.2 0 4.7-4.5 7.7-11.4 7.7-9.6 0-12.9-5.7-13.9-11.6l-35.4 4.4c1.6 17.5 17.9 29.1 48.3 29.1m-95.2-80.9H88.9l4.5-21h18.1c7.4 0 12.1 3 12.1 8.9-.1 7.2-5.5 12.1-14.9 12.1m-9 48.5h-21l5-23.3h19.6c7.9 0 13.4 3.5 13.4 10.2 0 7.9-6.2 13.1-17 13.1m-66 29.2h69.8c29.2 0 52.2-13.4 52.2-38.6 0-13.9-10.4-24.7-26-27 19.8-3.5 31.9-16.6 31.9-33.9 0-17.6-15.6-28.7-40.3-28.7H60.7l-27 128.2zm170.2 16.8c-24 0-41.8-6.9-52-18.3-12.1 9.9-29.7 15.1-48.5 15.1H16.8L49.5 14.3h71.8c31.7 0 53.5 16.1 54 41.3 9.7-5.4 22.3-8.4 36.6-8.4 21.8 0 37.1 5.9 46.5 14.9l10.1-47.8h64.4l-9.4 44 9.4-7.9h90.3l-67.3 54.2 38.6 65.1H320l-14.4-26.5-5.9 26.5h-64.1l.5-2.5c-9.6 4-21 5.7-32.2 5.7m.1 13.6c9 0 18-1.1 26.7-3.2h187.8l-44.8-75.5 88.1-71H342L349.7.7h-92.3L249 40.3c-10.1-4.2-22.5-6.7-37.1-6.7-8.9 0-17.8 1.1-26.5 3.5C176.5 14.6 152.5.7 121.3.7H38.4L0 183.3h103.4c17.1 0 33.9-4 47.3-11.6 13.1 9.6 31.4 14.8 53.3 14.8"></path>
    </g>
</svg>